<svg width="233" height="386" viewBox="0 0 233 386" fill="none" xmlns="http://www.w3.org/2000/svg">
<path fill-rule="evenodd" clip-rule="evenodd" d="M4.0625 25.5312C1.97917 30.349 0.9375 35.4922 0.9375 40.9609V240.961C0.9375 246.43 1.97917 251.638 4.0625 256.586C6.14583 261.404 9.01042 265.635 12.6562 269.281C16.3021 272.927 20.5339 275.792 25.3516 277.875C30.2995 279.958 35.5078 281 40.9766 281H192.93C198.398 281 203.542 279.958 208.359 277.875C213.307 275.792 217.604 272.927 221.25 269.281C224.896 265.635 227.76 261.404 229.844 256.586C231.927 251.638 232.969 246.43 232.969 240.961V132.953H193V173H192.93V240.961H40.9766V40.9609H192.93V77.0938H232.969V40.9609C232.969 35.4922 231.927 30.349 229.844 25.5312C227.76 20.5833 224.896 16.3516 221.25 12.8359C217.604 9.1901 213.307 6.32552 208.359 4.24219C203.542 2.02865 198.398 0.921875 192.93 0.921875H40.9766C35.5078 0.921875 30.2995 2.02865 25.3516 4.24219C20.5339 6.32552 16.3021 9.1901 12.6562 12.8359C9.01042 16.3516 6.14583 20.5833 4.0625 25.5312Z" fill="#E3E3E3"/>
<path d="M93 385.5V141H233" stroke="#E3E3E3" stroke-width="40"/>
</svg>
